<svg width="18" height="18" viewBox="0 0 18 18" fill="none" xmlns="http://www.w3.org/2000/svg">
<g clip-path="url(#clip0_60_41)">
<path d="M9.00007 0C4.0301 0 0 4.1261 0 9.21607C0 13.288 2.57878 16.7426 6.15481 17.9612C6.60459 18.0465 6.76976 17.7612 6.76976 17.5178C6.76976 17.2981 6.76132 16.5721 6.75752 15.8021C4.2537 16.3595 3.72537 14.7146 3.72537 14.7146C3.31594 13.6494 2.72602 13.3661 2.72602 13.3661C1.90948 12.7941 2.78761 12.8059 2.78761 12.8059C3.69134 12.8709 4.16721 13.7556 4.16721 13.7556C4.96997 15.1645 6.27272 14.7572 6.78628 14.5217C6.86707 13.9261 7.1003 13.5194 7.35771 13.2893C5.35866 13.0563 3.25723 12.2661 3.25723 8.73475C3.25723 7.72855 3.60879 6.90638 4.18451 6.26098C4.09106 6.02885 3.78302 5.09155 4.2717 3.82205C4.2717 3.82205 5.02748 3.57437 6.7474 4.76676C7.46529 4.56257 8.23521 4.46018 9.00007 4.45666C9.76493 4.46018 10.5355 4.5625 11.2547 4.76676C12.9725 3.57444 13.7272 3.82212 13.7272 3.82212C14.2171 5.09148 13.9089 6.02892 13.8155 6.26098C14.3925 6.90638 14.7417 7.72855 14.7417 8.73475C14.7417 12.2745 12.6363 13.0539 10.6322 13.2821C10.955 13.568 11.2426 14.1289 11.2426 14.9887C11.2426 16.2218 11.2322 17.2143 11.2322 17.5178C11.2322 17.7631 11.3942 18.0505 11.8504 17.9599C15.4245 16.74 18 13.2867 18 9.21614C18 4.1261 13.9705 0 9.00007 0ZM3.37085 13.1285C3.35102 13.1743 3.28064 13.188 3.21659 13.1566C3.15127 13.1265 3.11463 13.0641 3.13573 13.0182C3.15513 12.971 3.22566 12.9578 3.29077 12.9894C3.35616 13.0195 3.39342 13.0825 3.37085 13.1285ZM3.81354 13.533C3.77065 13.5737 3.6867 13.5548 3.62974 13.4904C3.57089 13.4262 3.55985 13.3402 3.60337 13.2989C3.64767 13.2582 3.72902 13.2772 3.78802 13.3415C3.84694 13.4065 3.85833 13.4918 3.81354 13.533ZM4.11729 14.0505C4.06209 14.0898 3.97195 14.053 3.9162 13.971C3.86107 13.8891 3.86107 13.7908 3.91739 13.7514C3.97329 13.712 4.06209 13.7475 4.11855 13.8288C4.17354 13.9121 4.17354 14.0104 4.11722 14.0506L4.11729 14.0505ZM4.63085 14.6499C4.58156 14.7056 4.47645 14.6907 4.39952 14.6146C4.32084 14.5403 4.29898 14.4349 4.34848 14.3792C4.3984 14.3233 4.50408 14.339 4.58156 14.4145C4.65961 14.4886 4.68352 14.5948 4.63085 14.6499ZM5.29474 14.8522C5.27295 14.9244 5.1717 14.9573 5.06981 14.9266C4.968 14.895 4.90141 14.8105 4.92195 14.7375C4.94311 14.6648 5.04478 14.6307 5.14744 14.6635C5.24911 14.6949 5.31591 14.7788 5.29474 14.8522ZM6.05018 14.9381C6.05271 15.0141 5.9663 15.0771 5.85928 15.0785C5.7517 15.081 5.66459 15.0195 5.66339 14.9446C5.66339 14.8679 5.74791 14.8055 5.85555 14.8036C5.96257 14.8015 6.05018 14.8625 6.05018 14.9381ZM6.79233 14.909C6.80512 14.9831 6.7308 15.0593 6.62449 15.0796C6.52008 15.0991 6.42333 15.0533 6.41004 14.9798C6.3971 14.9038 6.47283 14.8276 6.5771 14.808C6.68355 14.789 6.77876 14.8336 6.79233 14.909Z" fill="white"/>
</g>
<defs>
<clipPath id="clip0_60_41">
<rect width="18" height="18" fill="white"/>
</clipPath>
</defs>
</svg>
