<svg width="20" height="16" viewBox="0 0 20 16" fill="none" xmlns="http://www.w3.org/2000/svg">
<g clip-path="url(#clip0_60_37)">
<path d="M20 1.94839C19.2641 2.26816 18.4733 2.48427 17.6433 2.5815C18.4905 2.08389 19.1411 1.29591 19.4474 0.357036C18.642 0.825388 17.7608 1.15537 16.8419 1.33273C16.0934 0.551333 15.027 0.0629883 13.8468 0.0629883C11.5807 0.0629883 9.74344 1.86326 9.74344 4.08366C9.74344 4.39884 9.77977 4.70567 9.84969 5.00002C6.43953 4.83229 3.41609 3.2316 1.39227 0.798988C1.03914 1.39283 0.836797 2.08358 0.836797 2.82035C0.836797 4.21533 1.56125 5.44595 2.66219 6.16703C2.01059 6.14703 1.37332 5.97457 0.803594 5.66406C0.803359 5.6809 0.803359 5.69774 0.803359 5.71466C0.803359 7.66276 2.21773 9.28787 4.09477 9.65725C3.49054 9.81827 2.85674 9.84184 2.2418 9.72615C2.76391 11.3235 4.2793 12.486 6.07477 12.5185C4.67047 13.5968 2.90117 14.2397 0.978828 14.2397C0.647578 14.2397 0.321016 14.2206 0 14.1835C1.81586 15.3243 3.97266 15.99 6.28984 15.99C13.8373 15.99 17.9644 9.86318 17.9644 4.54995C17.9644 4.37556 17.9605 4.20217 17.9525 4.02976C18.7558 3.46072 19.4492 2.7559 20 1.94839Z" fill="white"/>
</g>
<defs>
<clipPath id="clip0_60_37">
<rect width="20" height="16" fill="white"/>
</clipPath>
</defs>
</svg>
